<?xml version="1.0" encoding="UTF-8"?>
<svg width="230px" height="46px" viewBox="0 0 230 46" version="1.1" xmlns="http://www.w3.org/2000/svg" xmlns:xlink="http://www.w3.org/1999/xlink">
    <title>EPIC2022 Logo</title>
    <g id="EPIC2022" stroke="none" stroke-width="1" fill="none" fill-rule="evenodd">
        <g id="07_Call_For_Participation" transform="translate(-256.000000, -21.000000)" fill="#10235C">
            <g id="EPIC2019-Logo" transform="translate(256.000000, 21.000000)">
                <g id="SVGID_1_-link" transform="translate(0.000000, 1.011111)">
                    <polygon id="SVGID_1_" points="24.8478261 0 24.8478261 7.17888889 8.90217391 7.17888889 8.90217391 17.3911111 23.8695652 17.3911111 23.8695652 24.57 8.90217391 24.57 8.90217391 36.2988889 25.4347826 36.2988889 25.4347826 43.4777778 0 43.4777778 0 0"></polygon>
                </g>
                <g id="SVGID_3_-link" transform="translate(27.391304, 1.011111)" fill-rule="nonzero">
                    <path d="M0,0 L15.4565217,0 C24.3586957,0 27.3913043,6.47111111 27.3913043,13.0433333 C27.3913043,22.0422222 21.8152174,26.0866667 13.5,26.0866667 L8.80434783,26.0866667 L8.80434783,43.4777778 L0,43.4777778 L0,0 Z M8.80434783,19.7166667 L12.7173913,19.7166667 C16.2391304,19.7166667 18.5869565,17.6944444 18.5869565,13.2455556 C18.5869565,8.99888889 16.826087,6.57222222 12.5217391,6.57222222 L8.80434783,6.57222222 L8.80434783,19.7166667 Z" id="SVGID_3_"></path>
                </g>
                <g id="SVGID_5_-link" transform="translate(58.695652, 1.011111)">
                    <rect id="SVGID_5_" x="0" y="0" width="8.80434783" height="43.4777778"></rect>
                </g>
                <g id="SVGID_7_-link" transform="translate(73.467391, 0.000000)">
                    <path d="M19.2717391,15.6722222 C19.2717391,9.30222222 18,6.57222222 14.0869565,6.57222222 C9.68478261,6.57222222 8.60869565,11.0211111 8.60869565,23.4577778 C8.60869565,36.7033333 10.3695652,39.13 14.1847826,39.13 C17.3152174,39.13 19.6630435,37.5122222 19.6630435,28.0077778 L28.3695652,28.0077778 C28.3695652,37.4111111 26.1195652,45.6011111 14.673913,45.6011111 C1.66304348,45.6011111 0,36.1977778 0,22.8511111 C0,9.50444444 1.56521739,0 14.576087,0 C27,0 27.8804348,9.20111111 27.8804348,15.6722222 L19.2717391,15.6722222 Z" id="SVGID_7_"></path>
                </g>
                <g id="Group" transform="translate(106.728261, 0.404444)">
                    <path d="M0,43.9833333 C0,43.8822222 0,43.5788889 0,43.2755556 C0,42.9722222 0,42.77 0,42.5677778 C0,39.4333333 0.782608696,36.7033333 2.44565217,34.1755556 C4.10869565,31.6477778 6.75,29.3222222 10.4673913,26.8955556 C11.3478261,26.2888889 12.7173913,25.48 14.3804348,24.4688889 C17.9021739,22.3455556 20.0543478,20.7277778 21.0326087,19.6155556 C21.9130435,18.6044444 22.5978261,17.5933333 22.9891304,16.4811111 C23.3804348,15.3688889 23.576087,14.1555556 23.576087,12.74 C23.576087,9.80777778 22.7934783,7.58333333 21.2282609,5.96555556 C19.6630435,4.34777778 17.5108696,3.53888889 14.673913,3.53888889 C11.5434783,3.53888889 9.19565217,4.44888889 7.5326087,6.37 C5.86956522,8.29111111 4.98913043,11.0211111 4.98913043,14.56 L1.07608696,14.56 C1.17391304,9.90888889 2.44565217,6.26888889 4.89130435,3.74111111 C7.33695652,1.21333333 10.5652174,0 14.8695652,0 C18.7826087,0 21.9130435,1.11222222 24.2608696,3.43777778 C26.6086957,5.76333333 27.6847826,8.79666667 27.6847826,12.6388889 C27.6847826,14.4588889 27.3913043,16.0766667 26.9021739,17.5933333 C26.3152174,19.0088889 25.5326087,20.4244444 24.3586957,21.7388889 C22.9891304,23.2555556 20.3478261,25.1766667 16.1413043,27.6033333 C14.8695652,28.4122222 13.8913043,28.9177778 13.1086957,29.4233333 C9.97826087,31.3444444 7.72826087,33.0633333 6.35869565,34.7822222 C4.98913043,36.5011111 4.20652174,38.3211111 4.01086957,40.4444444 L27.3913043,40.4444444 L27.3913043,43.9833333 L0,43.9833333 Z" id="Path"></path>
                    <path d="M31.5,22.6488889 C31.5,15.3688889 32.673913,9.70666667 35.0217391,5.86444444 C37.3695652,2.02222222 40.7934783,0.101111111 45.3913043,0.101111111 C49.8913043,0.101111111 53.3152174,2.02222222 55.7608696,5.96555556 C58.2065217,9.90888889 59.3804348,15.47 59.3804348,22.75 C59.3804348,30.03 58.2065217,35.5911111 55.7608696,39.4333333 C53.3152174,43.2755556 49.8913043,45.1966667 45.3913043,45.1966667 C40.8913043,45.1966667 37.4673913,43.2755556 35.0217391,39.4333333 C32.673913,35.5911111 31.5,30.03 31.5,22.6488889 Z M35.6086957,22.6488889 C35.6086957,29.0188889 36.3913043,33.8722222 38.0543478,37.0066667 C39.7173913,40.1411111 42.1630435,41.7588889 45.4891304,41.7588889 C48.8152174,41.7588889 51.2608696,40.2422222 52.826087,37.1077778 C54.3913043,33.9733333 55.2717391,29.2211111 55.2717391,22.75 C55.2717391,16.2788889 54.4891304,11.5266667 52.826087,8.39222222 C51.1630435,5.25777778 48.8152174,3.64 45.4891304,3.64 C42.1630435,3.64 39.7173913,5.25777778 38.0543478,8.39222222 C36.3913043,11.5266667 35.6086957,16.2788889 35.6086957,22.6488889 Z" id="Shape" fill-rule="nonzero"></path>
                    <path d="M63.5869565,43.9833333 C63.5869565,43.8822222 63.5869565,43.5788889 63.5869565,43.2755556 C63.5869565,42.9722222 63.5869565,42.77 63.5869565,42.5677778 C63.5869565,39.4333333 64.3695652,36.7033333 66.0326087,34.1755556 C67.6956522,31.6477778 70.3369565,29.3222222 74.0543478,26.8955556 C74.9347826,26.2888889 76.3043478,25.48 77.9673913,24.4688889 C81.4891304,22.3455556 83.6413043,20.7277778 84.6195652,19.6155556 C85.5,18.6044444 86.1847826,17.5933333 86.576087,16.4811111 C86.9673913,15.3688889 87.1630435,14.1555556 87.1630435,12.74 C87.1630435,9.80777778 86.3804348,7.58333333 84.8152174,5.96555556 C83.25,4.34777778 81.0978261,3.53888889 78.2608696,3.53888889 C75.1304348,3.53888889 72.7826087,4.44888889 71.1195652,6.37 C69.4565217,8.29111111 68.576087,11.0211111 68.576087,14.56 L64.6630435,14.56 C64.7608696,9.90888889 66.0326087,6.26888889 68.4782609,3.74111111 C70.923913,1.21333333 74.1521739,0 78.4565217,0 C82.3695652,0 85.5,1.11222222 87.8478261,3.43777778 C90.1956522,5.76333333 91.2717391,8.79666667 91.2717391,12.6388889 C91.2717391,14.4588889 90.9782609,16.0766667 90.4891304,17.5933333 C89.9021739,19.0088889 89.1195652,20.4244444 87.9456522,21.7388889 C86.576087,23.2555556 83.9347826,25.1766667 79.7282609,27.6033333 C78.4565217,28.4122222 77.4782609,28.9177778 76.6956522,29.4233333 C73.5652174,31.3444444 71.3152174,33.0633333 69.9456522,34.7822222 C68.576087,36.5011111 67.7934783,38.3211111 67.5978261,40.4444444 L90.9782609,40.4444444 L90.9782609,43.9833333 L63.5869565,43.9833333 Z" id="Path"></path>
                    <path d="M95.5869565,43.9833333 C95.5869565,43.8822222 95.5869565,43.5788889 95.5869565,43.2755556 C95.5869565,42.9722222 95.5869565,42.77 95.5869565,42.5677778 C95.5869565,39.4333333 96.3695652,36.7033333 98.0326087,34.1755556 C99.6956522,31.6477778 102.336957,29.3222222 106.054348,26.8955556 C106.934783,26.2888889 108.304348,25.48 109.967391,24.4688889 C113.48913,22.3455556 115.641304,20.7277778 116.619565,19.6155556 C117.5,18.6044444 118.184783,17.5933333 118.576087,16.4811111 C118.967391,15.3688889 119.163043,14.1555556 119.163043,12.74 C119.163043,9.80777778 118.380435,7.58333333 116.815217,5.96555556 C115.25,4.34777778 113.097826,3.53888889 110.26087,3.53888889 C107.130435,3.53888889 104.782609,4.44888889 103.119565,6.37 C101.456522,8.29111111 100.576087,11.0211111 100.576087,14.56 L96.6630435,14.56 C96.7608696,9.90888889 98.0326087,6.26888889 100.478261,3.74111111 C102.923913,1.21333333 106.152174,0 110.456522,0 C114.369565,0 117.5,1.11222222 119.847826,3.43777778 C122.195652,5.76333333 123.271739,8.79666667 123.271739,12.6388889 C123.271739,14.4588889 122.978261,16.0766667 122.48913,17.5933333 C121.902174,19.0088889 121.119565,20.4244444 119.945652,21.7388889 C118.576087,23.2555556 115.934783,25.1766667 111.728261,27.6033333 C110.456522,28.4122222 109.478261,28.9177778 108.695652,29.4233333 C105.565217,31.3444444 103.315217,33.0633333 101.945652,34.7822222 C100.576087,36.5011111 99.7934783,38.3211111 99.5978261,40.4444444 L122.978261,40.4444444 L122.978261,43.9833333 L95.5869565,43.9833333 Z" id="Path-Copy"></path>
                </g>
            </g>
        </g>
    </g>
</svg>