<?xml version="1.0" encoding="UTF-8"?>
<svg width="220px" height="45px" viewBox="0 0 220 45" version="1.1" xmlns="http://www.w3.org/2000/svg" xmlns:xlink="http://www.w3.org/1999/xlink">
    <title>EPIC2020 Logo</title>
    <g id="Symbols" stroke="none" stroke-width="1" fill="none" fill-rule="evenodd">
        <g id="EPIC2019-Logo" fill="#262829">
            <g id="SVGID_1_-link" transform="translate(0.000000, 0.989130)">
                <polygon id="SVGID_1_" points="24.8478261 0 24.8478261 7.02282609 8.90217391 7.02282609 8.90217391 17.0130435 23.8695652 17.0130435 23.8695652 24.0358696 8.90217391 24.0358696 8.90217391 35.5097826 25.4347826 35.5097826 25.4347826 42.5326087 0 42.5326087 0 0"></polygon>
            </g>
            <g id="SVGID_3_-link" transform="translate(27.391304, 0.989130)" fill-rule="nonzero">
                <path d="M0,0 L15.4565217,0 C24.3586957,0 27.3913043,6.33043478 27.3913043,12.7597826 C27.3913043,21.5630435 21.8152174,25.5195652 13.5,25.5195652 L8.80434783,25.5195652 L8.80434783,42.5326087 L0,42.5326087 L0,0 Z M8.80434783,19.2880435 L12.7173913,19.2880435 C16.2391304,19.2880435 18.5869565,17.3097826 18.5869565,12.9576087 C18.5869565,8.80326087 16.826087,6.42934783 12.5217391,6.42934783 L8.80434783,6.42934783 L8.80434783,19.2880435 Z" id="SVGID_3_"></path>
            </g>
            <g id="SVGID_5_-link" transform="translate(58.695652, 0.989130)">
                <rect id="SVGID_5_" x="0" y="0" width="8.80434783" height="42.5326087"></rect>
            </g>
            <g id="SVGID_7_-link" transform="translate(73.369565, 0.000000)">
                <path d="M19.3695652,15.3315217 C19.3695652,9.1 18.0978261,6.42934783 14.1847826,6.42934783 C9.7826087,6.42934783 8.70652174,10.7815217 8.70652174,22.9478261 C8.70652174,35.9054348 10.4673913,38.2793478 14.2826087,38.2793478 C17.4130435,38.2793478 19.7608696,36.6967391 19.7608696,27.398913 L28.4673913,27.398913 C28.4673913,36.5978261 26.2173913,44.6097826 14.7717391,44.6097826 C1.76086957,44.6097826 0.097826087,35.4108696 0.097826087,22.3543478 C0.097826087,9.29782609 1.66304348,0 14.673913,0 C27.0978261,0 27.9782609,9.00108696 27.9782609,15.3315217 L19.3695652,15.3315217 Z" id="SVGID_7_"></path>
            </g>
            <g id="Group" transform="translate(106.630435, 0.000000)">
                <path d="M0.097826087,43.4228261 C0.097826087,43.323913 0.097826087,43.0271739 0.097826087,42.7304348 C0.097826087,42.4336957 0.097826087,42.2358696 0.097826087,42.0380435 C0.097826087,38.9717391 0.880434783,36.301087 2.54347826,33.8282609 C4.20652174,31.3554348 6.84782609,29.0804348 10.5652174,26.7065217 C11.4456522,26.1130435 12.8152174,25.3217391 14.4782609,24.3326087 C18,22.2554348 20.1521739,20.6728261 21.1304348,19.5847826 C22.0108696,18.5956522 22.6956522,17.6065217 23.0869565,16.5184783 C23.4782609,15.4304348 23.673913,14.2434783 23.673913,12.8586957 C23.673913,9.99021739 22.8913043,7.81413043 21.326087,6.23152174 C19.7608696,4.64891304 17.6086957,3.8576087 14.7717391,3.8576087 C11.6413043,3.8576087 9.29347826,4.74782609 7.63043478,6.62717391 C5.9673913,8.50652174 5.08695652,11.1771739 5.08695652,14.6391304 L1.17391304,14.6391304 C1.27173913,10.0891304 2.54347826,6.52826087 4.98913043,4.05543478 C7.43478261,1.5826087 10.6630435,0.395652174 14.9673913,0.395652174 C18.8804348,0.395652174 22.0108696,1.48369565 24.3586957,3.75869565 C26.7065217,6.03369565 27.7826087,9.00108696 27.7826087,12.7597826 C27.7826087,14.5402174 27.4891304,16.1228261 27,17.6065217 C26.4130435,18.9913043 25.6304348,20.376087 24.4565217,21.6619565 C23.0869565,23.1456522 20.4456522,25.025 16.2391304,27.398913 C14.9673913,28.1902174 13.9891304,28.6847826 13.2065217,29.1793478 C10.076087,31.0586957 7.82608696,32.7402174 6.45652174,34.4217391 C5.08695652,36.1032609 4.30434783,37.8836957 4.10869565,39.9608696 L27.4891304,39.9608696 L27.4891304,43.4228261 L0.097826087,43.4228261 Z" id="Path"></path>
                <path d="M108.286002,43.4347826 L108.286002,9.07796115 C107.326927,9.93937607 106.038691,10.565916 104.421294,10.9557217 C102.802661,11.3467669 100.736296,11.5419797 98.2203441,11.5419797 L97.5922826,11.5419797 L97.5922826,8.89824149 L97.8596874,8.89824149 C101.434759,8.89824149 104.092133,8.21096872 105.82872,6.8395218 C107.565924,5.46621571 108.526234,3.32693203 108.70471,0.42105105 L112.266196,0.391304348 L112.266196,43.4347826 L108.286002,43.4347826 Z" id="Fill-1"></path>
                <path d="M31.5978261,22.5521739 C31.5978261,15.4304348 32.7717391,9.89130435 35.1195652,6.1326087 C37.4673913,2.37391304 40.8913043,0.494565217 45.4891304,0.494565217 C49.9891304,0.494565217 53.4130435,2.37391304 55.8586957,6.23152174 C58.3043478,10.0891304 59.4782609,15.5293478 59.4782609,22.651087 C59.4782609,29.7728261 58.3043478,35.2130435 55.8586957,38.9717391 C53.4130435,42.7304348 49.9891304,44.6097826 45.4891304,44.6097826 C40.9891304,44.6097826 37.5652174,42.7304348 35.1195652,38.9717391 C32.7717391,35.2130435 31.5978261,29.7728261 31.5978261,22.5521739 Z M35.7065217,22.5521739 C35.7065217,28.7836957 36.4891304,33.5315217 38.1521739,36.5978261 C39.8152174,39.6641304 42.2608696,41.2467391 45.5869565,41.2467391 C48.9130435,41.2467391 51.3586957,39.7630435 52.923913,36.6967391 C54.4891304,33.6304348 55.3695652,28.9815217 55.3695652,22.651087 C55.3695652,16.3206522 54.5869565,11.6717391 52.923913,8.60543478 C51.2608696,5.53913043 48.9130435,3.95652174 45.5869565,3.95652174 C42.2608696,3.95652174 39.8152174,5.53913043 38.1521739,8.60543478 C36.4891304,11.6717391 35.7065217,16.3206522 35.7065217,22.5521739 Z" id="Shape" fill-rule="nonzero"></path>
                <path d="M63.6847826,43.4228261 C63.6847826,43.323913 63.6847826,43.0271739 63.6847826,42.7304348 C63.6847826,42.4336957 63.6847826,42.2358696 63.6847826,42.0380435 C63.6847826,38.9717391 64.4673913,36.301087 66.1304348,33.8282609 C67.7934783,31.3554348 70.4347826,29.0804348 74.1521739,26.7065217 C75.0326087,26.1130435 76.4021739,25.3217391 78.0652174,24.3326087 C81.5869565,22.2554348 83.7391304,20.6728261 84.7173913,19.5847826 C85.5978261,18.5956522 86.2826087,17.6065217 86.673913,16.5184783 C87.0652174,15.4304348 87.2608696,14.2434783 87.2608696,12.8586957 C87.2608696,9.99021739 86.4782609,7.81413043 84.9130435,6.23152174 C83.3478261,4.64891304 81.1956522,3.8576087 78.3586957,3.8576087 C75.2282609,3.8576087 72.8804348,4.74782609 71.2173913,6.62717391 C69.5543478,8.50652174 68.673913,11.1771739 68.673913,14.6391304 L64.7608696,14.6391304 C64.8586957,10.0891304 66.1304348,6.52826087 68.576087,4.05543478 C71.0217391,1.5826087 74.25,0.395652174 78.5543478,0.395652174 C82.4673913,0.395652174 85.5978261,1.48369565 87.9456522,3.75869565 C90.2934783,6.03369565 91.3695652,9.00108696 91.3695652,12.7597826 C91.3695652,14.5402174 91.076087,16.1228261 90.5869565,17.6065217 C90,18.9913043 89.2173913,20.376087 88.0434783,21.6619565 C86.673913,23.1456522 84.0326087,25.025 79.826087,27.398913 C78.5543478,28.1902174 77.576087,28.6847826 76.7934783,29.1793478 C73.6630435,31.0586957 71.4130435,32.7402174 70.0434783,34.4217391 C68.673913,36.1032609 67.8913043,37.8836957 67.6956522,39.9608696 L91.076087,39.9608696 L91.076087,43.4228261 L63.6847826,43.4228261 Z" id="Path"></path>
            </g>
        </g>
    </g>
</svg>