<?xml version="1.0" standalone="no"?>
<!DOCTYPE svg PUBLIC "-//W3C//DTD SVG 1.1//EN" "http://www.w3.org/Graphics/SVG/1.1/DTD/svg11.dtd" >
<svg xmlns="http://www.w3.org/2000/svg">
<metadata>Generated by IcoMoon</metadata>
<defs>
<font id="EPIC-Art" horiz-adv-x="1024">
<font-face units-per-em="1024" ascent="960" descent="-64" />
<missing-glyph horiz-adv-x="1024" />
<glyph unicode="&#x20;" horiz-adv-x="512" d="" />
<glyph unicode="&#x41;" glyph-name="EpicArt-A" horiz-adv-x="1206" d="M1151.174-64h37.987l-586.323 1015.742-586.323-1015.742h37.987l189.935 330.323h515.303l189.935-330.323h41.29l-467.406 805.987 29.729 54.503 498.787-860.49h37.987l-516.955 891.871 29.729 54.503 548.335-946.374zM743.226 299.355h-478.968l239.484 414.555 239.484-414.555z" />
<glyph unicode="&#x42;" glyph-name="EpicArt-B" horiz-adv-x="836" d="M590.507 463.36c85.333 44.373 143.36 131.413 143.36 230.4 0 145.067-126.293 266.24-274.773 266.24h-459.093v-1024h564.907c141.653 0 254.293 117.76 254.293 266.24 0 0 0 0 0 0s0 0 0 0c0 138.24-98.987 249.173-228.693 261.12zM256 925.867h203.093c128 0 240.64-109.227 240.64-233.813 0-122.88-109.227-226.987-240.64-226.987h-254.293v460.8h51.2zM34.133-29.867v955.733h51.2v-955.733h-51.2zM119.467-29.867v955.733h51.2v-955.733h-51.2zM564.907-29.867h-360.107v460.8h358.4c124.587 0 221.867-100.693 221.867-228.693 0-129.707-97.28-232.107-220.16-232.107z" />
<glyph unicode="&#x43;" glyph-name="EpicArt-C" horiz-adv-x="848" d="M24 448c0-177.6 107.2-353.6 267.2-448l27.2-14.4v924.8l-25.6-14.4c-161.6-94.4-268.8-270.4-268.8-448zM288 43.2c-144 91.2-224 246.4-224 404.8s80 313.6 224 404.8v-809.6zM368 894.4v-926.4l32-11.2v982.4l-32-11.2zM540.8-32c-22.4 0-44.8 1.6-60.8 4.8v950.4c16 3.2 38.4 4.8 60.8 4.8 100.8 0 195.2-30.4 276.8-89.6l17.6 25.6c-86.4 62.4-190.4 96-297.6 96-27.2 0-44.8-1.6-78.4-6.4l-11.2-1.6v-1006.4l9.6-1.6c33.6-4.8 52.8-6.4 80-6.4 107.2 0 209.6 33.6 296 94.4l-17.6 25.6c-80-59.2-174.4-89.6-275.2-89.6z" />
<glyph unicode="&#x44;" glyph-name="EpicArt-D" horiz-adv-x="922" d="M389.12 960h-389.12v-1024h389.12c281.6 0 512 230.4 512 512s-230.4 512-512 512zM34.133-29.867v955.733h51.2v-955.733h-51.2zM119.467-29.867v955.733h51.2v-955.733h-51.2zM389.12-29.867h-184.32v955.733h184.32c262.827 0 477.867-215.040 477.867-477.867s-215.040-477.867-477.867-477.867z" />
<glyph unicode="&#x45;" glyph-name="EpicArt-E" horiz-adv-x="768" d="M768 925.867v34.133h-768v-1024h768v34.133h-563.2v307.2h563.2v34.133h-563.2v614.4h563.2zM34.133-29.867v955.733h51.2v-955.733h-51.2zM170.667-29.867h-51.2v955.733h51.2v-955.733z" />
<glyph unicode="&#x46;" glyph-name="EpicArt-F" horiz-adv-x="768" d="M768 925.867v34.133h-768v-1024h34.133v989.867h51.2v-989.867h34.133v989.867h51.2v-989.867h34.133v341.333h563.2v34.133h-563.2v614.4z" />
<glyph unicode="&#x47;" glyph-name="EpicArt-G" horiz-adv-x="1040" d="M24 448c0-177.6 107.2-353.6 267.2-448l27.2-14.4v924.8l-25.6-14.4c-161.6-94.4-268.8-270.4-268.8-448zM288 43.2c-144 91.2-224 246.4-224 404.8s80 313.6 224 404.8v-809.6zM368 894.4v-926.4l32-11.2v982.4l-32-11.2zM736 320v-32h238.4c-52.8-184-236.8-320-433.6-320-4.8 0-8 0-12.8 0v0c-17.6 0-35.2 1.6-48 4.8v950.4c16 3.2 38.4 4.8 60.8 4.8 100.8 0 195.2-30.4 276.8-89.6l17.6 25.6c-86.4 62.4-190.4 96-297.6 96-27.2 0-44.8-1.6-78.4-6.4l-11.2-1.6v-1006.4l9.6-1.6c3.2 0 4.8 0 8-1.6 14.4-3.2 35.2-4.8 54.4-4.8 3.2 0 4.8 0 8 0v0c4.8 0 8 0 12.8 0 222.4 0 419.2 153.6 470.4 364.8l4.8 19.2h-280z" />
<glyph unicode="&#x48;" glyph-name="EpicArt-H" horiz-adv-x="990" d="M0 960h34.133v-1024h-34.133v1024zM85.333 960h34.133v-1024h-34.133v1024zM785.067 311.467h-580.267v648.533h-34.133v-1024h34.133v341.333h580.267v-341.333h34.133v1024h-34.133zM870.4 960h34.133v-1024h-34.133v1024zM955.733 960h34.133v-1024h-34.133v1024z" />
<glyph unicode="&#x49;" glyph-name="EpicArt-I" horiz-adv-x="205" d="M0 960h34.133v-1024h-34.133v1024zM85.333 960h34.133v-1024h-34.133v1024zM170.667 960h34.133v-1024h-34.133v1024z" />
<glyph unicode="&#x4a;" glyph-name="EpicArt-J" horiz-adv-x="683" d="M665.6 960h-324.267v-34.133h136.533v-925.013c-40.96-18.773-87.040-30.72-134.827-30.72-174.080 0-308.907 131.413-308.907 298.667v42.667h-34.133v-42.667c0-186.027 150.187-332.8 343.040-332.8 191.147 0 339.627 146.773 339.627 332.8v691.2h-17.067zM512 19.627v906.24h51.2v-865.28c-15.36-15.36-32.427-29.013-51.2-40.96zM597.333 101.547v824.32h51.2v-657.067c0-63.147-18.773-119.467-51.2-167.253z" />
<glyph unicode="&#x4b;" glyph-name="EpicArt-K" horiz-adv-x="836" d="M785.067-64h39.253l-423.253 735.573 288.427 288.427h-47.787l-607.573-607.573v607.573h-34.133v-1024h34.133v368.64l211.627 211.627 334.507-580.267h39.253l-348.16 604.16 39.253 40.96 372.053-645.12h39.253l-385.707 670.72 39.253 39.253z" />
<glyph unicode="&#x4c;" glyph-name="EpicArt-L" horiz-adv-x="768" d="M204.8-29.867v989.867h-34.133v-989.867h-51.2v989.867h-34.133v-989.867h-51.2v989.867h-34.133v-1024h768v34.133z" />
<glyph unicode="&#x4d;" glyph-name="EpicArt-M" horiz-adv-x="1212" d="M34.133 960v0h-34.133v-1024h34.133v955.733l551.253-955.733h39.253l-590.507 1024zM97.28 960l590.507-1024h39.253l-590.507 1024zM1192.96 960h-15.36l-471.040-808.96-32.427 56.32 435.2 752.64h-40.96l-414.72-718.507-30.72 54.613 382.293 663.893h-39.253l-363.52-629.76-363.52 629.76h-39.253l590.507-1024h39.253l-104.107 180.907 452.267 774.827v-955.733h34.133v1024z" />
<glyph unicode="&#x4e;" glyph-name="EpicArt-N" horiz-adv-x="819" d="M34.133 960v0h-34.133v-1024h34.133v955.733l546.133-955.733h39.253l-585.387 1024zM97.28 960l585.387-1024h39.253l-585.387 1024zM785.067 960v-954.027l-546.133 954.027h-44.373l590.507-1024h34.133v1024z" />
<glyph unicode="&#x4f;" glyph-name="EpicArt-O" d="M0 448c0-185.6 100.8-358.4 264-448l24-12.8v921.6l-24-12.8c-163.2-89.6-264-262.4-264-448zM256 41.6c-139.2 88-224 241.6-224 406.4s84.8 318.4 224 406.4v-812.8zM336 894.4v-926.4c11.2-3.2 20.8-8 32-11.2v982.4c-11.2-3.2-20.8-6.4-32-11.2v-33.6zM512 960c-27.2 0-54.4-1.6-83.2-6.4l-12.8-3.2v-1006.4l12.8-1.6c27.2-4.8 56-6.4 83.2-6.4 281.6 0 512 230.4 512 512s-230.4 512-512 512zM512-32c-20.8 0-43.2 1.6-64 4.8v950.4c20.8 3.2 43.2 4.8 64 4.8 264 0 480-216 480-480s-216-480-480-480z" />
<glyph unicode="&#x50;" glyph-name="EpicArt-P" horiz-adv-x="836" d="M471.040 960h-471.040v-1024h34.133v960.853l339.627-602.453h39.253l-363.52 631.467h63.147l365.227-631.467h39.253l-365.227 631.467h63.147l365.227-631.467h17.067c129.707 51.2 215.040 182.613 215.040 322.56-1.707 187.733-153.6 343.040-341.333 343.040zM593.92 335.36l-339.627 590.507h216.747c168.96 0 305.493-138.24 305.493-308.907 0-119.467-73.387-232.107-182.613-281.6z" />
<glyph unicode="&#x51;" glyph-name="EpicArt-Q" horiz-adv-x="1056" d="M16 448c0-185.6 100.8-358.4 264-448l24-12.8v921.6l-24-12.8c-163.2-89.6-264-262.4-264-448zM272 41.6c-139.2 88-224 241.6-224 406.4s84.8 318.4 224 406.4v-812.8zM352 894.4v-926.4c11.2-3.2 20.8-8 32-11.2v982.4c-11.2-3.2-20.8-6.4-32-11.2v-33.6zM1040 448c0 281.6-230.4 512-512 512-27.2 0-54.4-1.6-83.2-6.4l-12.8-3.2v-1006.4l12.8-1.6c27.2-4.8 56-6.4 83.2-6.4 116.8 0 225.6 40 312 105.6l84.8-84.8 22.4 22.4-83.2 83.2c107.2 94.4 176 232 176 385.6zM528-32c-20.8 0-43.2 1.6-64 4.8v950.4c20.8 3.2 43.2 4.8 64 4.8 264 0 480-216 480-480 0-145.6-64-275.2-166.4-363.2l-86.4 86.4-22.4-22.4 83.2-84.8c-80-59.2-179.2-96-288-96z" />
<glyph unicode="&#x52;" glyph-name="EpicArt-R" horiz-adv-x="853" d="M785.067-64h39.253l-215.040 372.053c121.173 54.613 201.387 177.493 201.387 312.32 0 187.733-153.6 339.627-341.333 339.627h-469.333v-1024h34.133v959.147l546.133-959.147h39.253l-571.733 989.867h63.147l571.733-989.867h39.253l-571.733 989.867h63.147l571.733-989.867zM776.533 620.373c0-121.173-73.387-233.813-184.32-281.6l-339.627 587.093h216.747c170.667 0 307.2-136.533 307.2-305.493z" />
<glyph unicode="&#x53;" glyph-name="EpicArt-S" horiz-adv-x="870" d="M581.973 465.067h-27.307l-266.24 460.8c1.707 0 1.707 0 3.413 0h476.16v34.133h-476.16c-146.773 0-266.24-117.76-266.24-262.827 0-146.773 119.467-266.24 266.24-266.24h37.547l266.24-460.8c-5.12 0-8.533 0-13.653 0h-462.507v-34.133h462.507c145.067 0 271.36 119.467 271.36 266.24 0 0 0 0 0 0s0 0 0 0c0 145.067-126.293 262.827-271.36 262.827zM291.84 465.067c-128 0-232.107 104.107-232.107 233.813 0 47.787 15.36 92.16 40.96 128l208.213-361.813h-17.067zM124.587 854.187c11.947 13.653 25.6 25.6 42.667 35.84l515.413-896c-17.067-8.533-34.133-15.36-52.907-18.773l-505.173 878.933zM713.387 12.8l-517.12 892.587c17.067 6.827 34.133 13.653 52.907 17.067l503.467-872.107c-10.24-15.36-25.6-27.307-39.253-37.547zM776.533 79.36l-203.093 351.573h8.533c126.293 0 230.4-102.4 230.4-228.693-1.707-44.373-13.653-87.040-35.84-122.88z" />
<glyph unicode="&#x54;" glyph-name="EpicArt-T" horiz-adv-x="1058" d="M1058.133 960h-1058.133v-34.133h426.667v-989.867h34.133v989.867h51.2v-989.867h34.133v989.867h51.2v-989.867h34.133v989.867h426.667z" />
<glyph unicode="&#x55;" glyph-name="EpicArt-U" horiz-adv-x="768" d="M733.867 960v-640c0-192.853-157.013-349.867-349.867-349.867-64.853 0-126.293 18.773-179.2 49.493v940.373h-34.133v-916.48c-18.773 13.653-35.84 30.72-51.2 47.787v868.693h-34.133v-820.907c-32.427 52.907-51.2 114.347-51.2 180.907v640h-34.133v-640c0-211.627 172.373-384 384-384s384 172.373 384 384v640h-34.133z" />
<glyph unicode="&#x56;" glyph-name="EpicArt-V" horiz-adv-x="1206" d="M1151.174 960l-449.239-777.91-449.239 777.91h-37.987l469.058-810.942-31.381-52.852-498.787 863.794h-37.987l518.606-896.826-31.381-52.852-548.335 949.677h-37.987l586.323-1015.742 586.323 1015.742z" />
<glyph unicode="&#x57;" glyph-name="EpicArt-W" horiz-adv-x="1796" d="M1769.338 960h-38.61l-454.925-790.662-258.518 446.531 198.085 344.131h-38.61l-177.941-310.557-179.62 310.557h-38.61l475.069-824.236-30.216-53.718-506.964 877.954h-38.61l525.43-911.528-30.216-53.718-557.325 965.246h-38.61l298.807-518.715-156.118-271.948-456.603 790.662h-38.61l475.069-824.236-30.216-53.718-506.964 877.954h-38.61l525.43-911.528-30.216-53.718-557.325 965.246h-38.61l595.934-1032.393 276.984 480.105 276.984-480.105z" />
<glyph unicode="&#x58;" glyph-name="EpicArt-X" horiz-adv-x="1058" d="M22.187 960l431.787-580.267-329.387-443.733h42.667l308.907 414.72 307.2-414.72h42.667l-761.173 1024zM124.587 960l761.173-1024h42.667l-761.173 1024zM599.040 516.267l329.387 443.733h-42.667l-307.2-414.72-308.907 414.72h-42.667l761.173-1024h42.667z" />
<glyph unicode="&#x59;" glyph-name="EpicArt-Y" horiz-adv-x="1041" d="M989.867 960l-368.64-640-370.347 640h-39.253l389.12-674.133-30.72-54.613-421.547 728.747h-39.253l440.32-762.88-30.72-54.613-472.747 817.493h-39.253l491.52-851.627-98.987-172.373h39.253l590.507 1024z" />
<glyph unicode="&#x5a;" glyph-name="EpicArt-Z" horiz-adv-x="870" d="M855.040 960h-820.907v-34.133h556.373l-571.733-989.867h834.56v34.133h-570.027l571.733 989.867zM78.507-29.867l551.253 955.733h63.147l-551.253-955.733h-63.147zM180.907-29.867l551.253 955.733h63.147l-551.253-955.733h-63.147z" />
<glyph unicode="&#x61;" glyph-name="EpicArt-A2" horiz-adv-x="1206" d="M1151.174-64h37.987l-586.323 1015.742-586.323-1015.742h37.987l189.935 330.323h515.303l189.935-330.323h41.29l-467.406 805.987 29.729 54.503 498.787-860.49h37.987l-516.955 891.871 29.729 54.503 548.335-946.374zM743.226 299.355h-478.968l239.484 414.555 239.484-414.555z" />
<glyph unicode="&#x62;" glyph-name="EpicArt-B2" horiz-adv-x="836" d="M590.507 463.36c85.333 44.373 143.36 131.413 143.36 230.4 0 145.067-126.293 266.24-274.773 266.24h-459.093v-1024h564.907c141.653 0 254.293 117.76 254.293 266.24 0 0 0 0 0 0s0 0 0 0c0 138.24-98.987 249.173-228.693 261.12zM256 925.867h203.093c128 0 240.64-109.227 240.64-233.813 0-122.88-109.227-226.987-240.64-226.987h-254.293v460.8h51.2zM34.133-29.867v955.733h51.2v-955.733h-51.2zM119.467-29.867v955.733h51.2v-955.733h-51.2zM564.907-29.867h-360.107v460.8h358.4c124.587 0 221.867-100.693 221.867-228.693 0-129.707-97.28-232.107-220.16-232.107z" />
<glyph unicode="&#x63;" glyph-name="EpicArt-C2" horiz-adv-x="848" d="M24 448c0-177.6 107.2-353.6 267.2-448l27.2-14.4v924.8l-25.6-14.4c-161.6-94.4-268.8-270.4-268.8-448zM288 43.2c-144 91.2-224 246.4-224 404.8s80 313.6 224 404.8v-809.6zM368 894.4v-926.4l32-11.2v982.4l-32-11.2zM540.8-32c-22.4 0-44.8 1.6-60.8 4.8v950.4c16 3.2 38.4 4.8 60.8 4.8 100.8 0 195.2-30.4 276.8-89.6l17.6 25.6c-86.4 62.4-190.4 96-297.6 96-27.2 0-44.8-1.6-78.4-6.4l-11.2-1.6v-1006.4l9.6-1.6c33.6-4.8 52.8-6.4 80-6.4 107.2 0 209.6 33.6 296 94.4l-17.6 25.6c-80-59.2-174.4-89.6-275.2-89.6z" />
<glyph unicode="&#x64;" glyph-name="EpicArt-D2" horiz-adv-x="922" d="M389.12 960h-389.12v-1024h389.12c281.6 0 512 230.4 512 512s-230.4 512-512 512zM34.133-29.867v955.733h51.2v-955.733h-51.2zM119.467-29.867v955.733h51.2v-955.733h-51.2zM389.12-29.867h-184.32v955.733h184.32c262.827 0 477.867-215.040 477.867-477.867s-215.040-477.867-477.867-477.867z" />
<glyph unicode="&#x65;" glyph-name="EpicArt-E2" horiz-adv-x="768" d="M768 925.867v34.133h-768v-1024h768v34.133h-563.2v307.2h563.2v34.133h-563.2v614.4h563.2zM34.133-29.867v955.733h51.2v-955.733h-51.2zM170.667-29.867h-51.2v955.733h51.2v-955.733z" />
<glyph unicode="&#x66;" glyph-name="EpicArt-F2" horiz-adv-x="768" d="M768 925.867v34.133h-768v-1024h34.133v989.867h51.2v-989.867h34.133v989.867h51.2v-989.867h34.133v341.333h563.2v34.133h-563.2v614.4z" />
<glyph unicode="&#x67;" glyph-name="EpicArt-G2" horiz-adv-x="1040" d="M24 448c0-177.6 107.2-353.6 267.2-448l27.2-14.4v924.8l-25.6-14.4c-161.6-94.4-268.8-270.4-268.8-448zM288 43.2c-144 91.2-224 246.4-224 404.8s80 313.6 224 404.8v-809.6zM368 894.4v-926.4l32-11.2v982.4l-32-11.2zM736 320v-32h238.4c-52.8-184-236.8-320-433.6-320-4.8 0-8 0-12.8 0v0c-17.6 0-35.2 1.6-48 4.8v950.4c16 3.2 38.4 4.8 60.8 4.8 100.8 0 195.2-30.4 276.8-89.6l17.6 25.6c-86.4 62.4-190.4 96-297.6 96-27.2 0-44.8-1.6-78.4-6.4l-11.2-1.6v-1006.4l9.6-1.6c3.2 0 4.8 0 8-1.6 14.4-3.2 35.2-4.8 54.4-4.8 3.2 0 4.8 0 8 0v0c4.8 0 8 0 12.8 0 222.4 0 419.2 153.6 470.4 364.8l4.8 19.2h-280z" />
<glyph unicode="&#x68;" glyph-name="EpicArt-H2" horiz-adv-x="990" d="M0 960h34.133v-1024h-34.133v1024zM85.333 960h34.133v-1024h-34.133v1024zM785.067 311.467h-580.267v648.533h-34.133v-1024h34.133v341.333h580.267v-341.333h34.133v1024h-34.133zM870.4 960h34.133v-1024h-34.133v1024zM955.733 960h34.133v-1024h-34.133v1024z" />
<glyph unicode="&#x69;" glyph-name="EpicArt-I2" horiz-adv-x="205" d="M0 960h34.133v-1024h-34.133v1024zM85.333 960h34.133v-1024h-34.133v1024zM170.667 960h34.133v-1024h-34.133v1024z" />
<glyph unicode="&#x6a;" glyph-name="EpicArt-J2" horiz-adv-x="683" d="M665.6 960h-324.267v-34.133h136.533v-925.013c-40.96-18.773-87.040-30.72-134.827-30.72-174.080 0-308.907 131.413-308.907 298.667v42.667h-34.133v-42.667c0-186.027 150.187-332.8 343.040-332.8 191.147 0 339.627 146.773 339.627 332.8v691.2h-17.067zM512 19.627v906.24h51.2v-865.28c-15.36-15.36-32.427-29.013-51.2-40.96zM597.333 101.547v824.32h51.2v-657.067c0-63.147-18.773-119.467-51.2-167.253z" />
<glyph unicode="&#x6b;" glyph-name="EpicArt-K2" horiz-adv-x="836" d="M785.067-64h39.253l-423.253 735.573 288.427 288.427h-47.787l-607.573-607.573v607.573h-34.133v-1024h34.133v368.64l211.627 211.627 334.507-580.267h39.253l-348.16 604.16 39.253 40.96 372.053-645.12h39.253l-385.707 670.72 39.253 39.253z" />
<glyph unicode="&#x6c;" glyph-name="EpicArt-L2" horiz-adv-x="768" d="M204.8-29.867v989.867h-34.133v-989.867h-51.2v989.867h-34.133v-989.867h-51.2v989.867h-34.133v-1024h768v34.133z" />
<glyph unicode="&#x6d;" glyph-name="EpicArt-M2" horiz-adv-x="1212" d="M34.133 960v0h-34.133v-1024h34.133v955.733l551.253-955.733h39.253l-590.507 1024zM97.28 960l590.507-1024h39.253l-590.507 1024zM1192.96 960h-15.36l-471.040-808.96-32.427 56.32 435.2 752.64h-40.96l-414.72-718.507-30.72 54.613 382.293 663.893h-39.253l-363.52-629.76-363.52 629.76h-39.253l590.507-1024h39.253l-104.107 180.907 452.267 774.827v-955.733h34.133v1024z" />
<glyph unicode="&#x6e;" glyph-name="EpicArt-N2" horiz-adv-x="819" d="M34.133 960v0h-34.133v-1024h34.133v955.733l546.133-955.733h39.253l-585.387 1024zM97.28 960l585.387-1024h39.253l-585.387 1024zM785.067 960v-954.027l-546.133 954.027h-44.373l590.507-1024h34.133v1024z" />
<glyph unicode="&#x6f;" glyph-name="EpicArt-O2" d="M0 448c0-185.6 100.8-358.4 264-448l24-12.8v921.6l-24-12.8c-163.2-89.6-264-262.4-264-448zM256 41.6c-139.2 88-224 241.6-224 406.4s84.8 318.4 224 406.4v-812.8zM336 894.4v-926.4c11.2-3.2 20.8-8 32-11.2v982.4c-11.2-3.2-20.8-6.4-32-11.2v-33.6zM512 960c-27.2 0-54.4-1.6-83.2-6.4l-12.8-3.2v-1006.4l12.8-1.6c27.2-4.8 56-6.4 83.2-6.4 281.6 0 512 230.4 512 512s-230.4 512-512 512zM512-32c-20.8 0-43.2 1.6-64 4.8v950.4c20.8 3.2 43.2 4.8 64 4.8 264 0 480-216 480-480s-216-480-480-480z" />
<glyph unicode="&#x70;" glyph-name="EpicArt-P2" horiz-adv-x="836" d="M471.040 960h-471.040v-1024h34.133v960.853l339.627-602.453h39.253l-363.52 631.467h63.147l365.227-631.467h39.253l-365.227 631.467h63.147l365.227-631.467h17.067c129.707 51.2 215.040 182.613 215.040 322.56-1.707 187.733-153.6 343.040-341.333 343.040zM593.92 335.36l-339.627 590.507h216.747c168.96 0 305.493-138.24 305.493-308.907 0-119.467-73.387-232.107-182.613-281.6z" />
<glyph unicode="&#x71;" glyph-name="EpicArt-Q2" horiz-adv-x="1056" d="M16 448c0-185.6 100.8-358.4 264-448l24-12.8v921.6l-24-12.8c-163.2-89.6-264-262.4-264-448zM272 41.6c-139.2 88-224 241.6-224 406.4s84.8 318.4 224 406.4v-812.8zM352 894.4v-926.4c11.2-3.2 20.8-8 32-11.2v982.4c-11.2-3.2-20.8-6.4-32-11.2v-33.6zM1040 448c0 281.6-230.4 512-512 512-27.2 0-54.4-1.6-83.2-6.4l-12.8-3.2v-1006.4l12.8-1.6c27.2-4.8 56-6.4 83.2-6.4 116.8 0 225.6 40 312 105.6l84.8-84.8 22.4 22.4-83.2 83.2c107.2 94.4 176 232 176 385.6zM528-32c-20.8 0-43.2 1.6-64 4.8v950.4c20.8 3.2 43.2 4.8 64 4.8 264 0 480-216 480-480 0-145.6-64-275.2-166.4-363.2l-86.4 86.4-22.4-22.4 83.2-84.8c-80-59.2-179.2-96-288-96z" />
<glyph unicode="&#x72;" glyph-name="EpicArt-R2" horiz-adv-x="853" d="M785.067-64h39.253l-215.040 372.053c121.173 54.613 201.387 177.493 201.387 312.32 0 187.733-153.6 339.627-341.333 339.627h-469.333v-1024h34.133v959.147l546.133-959.147h39.253l-571.733 989.867h63.147l571.733-989.867h39.253l-571.733 989.867h63.147l571.733-989.867zM776.533 620.373c0-121.173-73.387-233.813-184.32-281.6l-339.627 587.093h216.747c170.667 0 307.2-136.533 307.2-305.493z" />
<glyph unicode="&#x73;" glyph-name="EpicArt-S2" horiz-adv-x="870" d="M581.973 465.067h-27.307l-266.24 460.8c1.707 0 1.707 0 3.413 0h476.16v34.133h-476.16c-146.773 0-266.24-117.76-266.24-262.827 0-146.773 119.467-266.24 266.24-266.24h37.547l266.24-460.8c-5.12 0-8.533 0-13.653 0h-462.507v-34.133h462.507c145.067 0 271.36 119.467 271.36 266.24 0 0 0 0 0 0s0 0 0 0c0 145.067-126.293 262.827-271.36 262.827zM291.84 465.067c-128 0-232.107 104.107-232.107 233.813 0 47.787 15.36 92.16 40.96 128l208.213-361.813h-17.067zM124.587 854.187c11.947 13.653 25.6 25.6 42.667 35.84l515.413-896c-17.067-8.533-34.133-15.36-52.907-18.773l-505.173 878.933zM713.387 12.8l-517.12 892.587c17.067 6.827 34.133 13.653 52.907 17.067l503.467-872.107c-10.24-15.36-25.6-27.307-39.253-37.547zM776.533 79.36l-203.093 351.573h8.533c126.293 0 230.4-102.4 230.4-228.693-1.707-44.373-13.653-87.040-35.84-122.88z" />
<glyph unicode="&#x74;" glyph-name="EpicArt-T2" horiz-adv-x="1058" d="M1058.133 960h-1058.133v-34.133h426.667v-989.867h34.133v989.867h51.2v-989.867h34.133v989.867h51.2v-989.867h34.133v989.867h426.667z" />
<glyph unicode="&#x75;" glyph-name="EpicArt-U2" horiz-adv-x="768" d="M733.867 960v-640c0-192.853-157.013-349.867-349.867-349.867-64.853 0-126.293 18.773-179.2 49.493v940.373h-34.133v-916.48c-18.773 13.653-35.84 30.72-51.2 47.787v868.693h-34.133v-820.907c-32.427 52.907-51.2 114.347-51.2 180.907v640h-34.133v-640c0-211.627 172.373-384 384-384s384 172.373 384 384v640h-34.133z" />
<glyph unicode="&#x76;" glyph-name="EpicArt-V2" horiz-adv-x="1206" d="M1151.174 960l-449.239-777.91-449.239 777.91h-37.987l469.058-810.942-31.381-52.852-498.787 863.794h-37.987l518.606-896.826-31.381-52.852-548.335 949.677h-37.987l586.323-1015.742 586.323 1015.742z" />
<glyph unicode="&#x77;" glyph-name="EpicArt-W2" horiz-adv-x="1796" d="M1769.338 960h-38.61l-454.925-790.662-258.518 446.531 198.085 344.131h-38.61l-177.941-310.557-179.62 310.557h-38.61l475.069-824.236-30.216-53.718-506.964 877.954h-38.61l525.43-911.528-30.216-53.718-557.325 965.246h-38.61l298.807-518.715-156.118-271.948-456.603 790.662h-38.61l475.069-824.236-30.216-53.718-506.964 877.954h-38.61l525.43-911.528-30.216-53.718-557.325 965.246h-38.61l595.934-1032.393 276.984 480.105 276.984-480.105z" />
<glyph unicode="&#x78;" glyph-name="EpicArt-X2" horiz-adv-x="1058" d="M22.187 960l431.787-580.267-329.387-443.733h42.667l308.907 414.72 307.2-414.72h42.667l-761.173 1024zM124.587 960l761.173-1024h42.667l-761.173 1024zM599.040 516.267l329.387 443.733h-42.667l-307.2-414.72-308.907 414.72h-42.667l761.173-1024h42.667z" />
<glyph unicode="&#x79;" glyph-name="EpicArt-Y2" horiz-adv-x="1041" d="M989.867 960l-368.64-640-370.347 640h-39.253l389.12-674.133-30.72-54.613-421.547 728.747h-39.253l440.32-762.88-30.72-54.613-472.747 817.493h-39.253l491.52-851.627-98.987-172.373h39.253l590.507 1024z" />
<glyph unicode="&#x7a;" glyph-name="EpicArt-Z2" horiz-adv-x="870" d="M855.040 960h-820.907v-34.133h556.373l-571.733-989.867h834.56v34.133h-570.027l571.733 989.867zM78.507-29.867l551.253 955.733h63.147l-551.253-955.733h-63.147zM180.907-29.867l551.253 955.733h63.147l-551.253-955.733h-63.147z" />
</font>
</defs>
</svg>
